<svg width="17" height="17" viewBox="0 0 17 17" fill="none" xmlns="http://www.w3.org/2000/svg">
    <mask id="path-1-outside-1_4032_25" maskUnits="userSpaceOnUse" x="0.792236" y="0.208252" width="16" height="16"
        fill="black">
        <rect fill="white" x="0.792236" y="0.208252" width="16" height="16" />
        <path
            d="M14.7023 12.2397C15.3509 11.2064 15.7174 10.0124 15.7824 8.79883C15.8483 7.56799 15.5812 6.33394 15.0353 5.22891C14.5084 4.16194 13.703 3.24963 12.7357 2.55408C11.7453 1.8417 10.5808 1.4162 9.37137 1.26274C9.08326 1.22628 8.79275 1.20865 8.50222 1.20825C6.78046 1.21186 5.12052 1.82247 3.80081 2.91468C2.54172 3.9568 1.65155 5.45248 1.34768 7.05113C1.1905 7.8797 1.21232 8.70948 1.21232 9.54686V12.8696C1.21232 13.6236 1.20464 14.3781 1.21232 15.1317C1.21232 15.1437 1.21232 15.1558 1.21232 15.1678C1.21232 15.4362 1.44183 15.6642 1.71297 15.6642H7.4993C7.88236 15.6642 8.26583 15.6706 8.64889 15.6626C9.87889 15.6366 11.0976 15.302 12.1615 14.6886C13.1931 14.094 14.0716 13.2434 14.7019 12.2393L14.7023 12.2397ZM11.4528 13.9445C11.3311 14.0091 11.2079 14.07 11.0826 14.1273C11.0491 14.1425 11.0156 14.1577 10.9816 14.1721C10.9768 14.1741 10.9667 14.1785 10.9553 14.1833C10.9372 14.1906 10.9073 14.203 10.8967 14.2074C10.858 14.2226 10.8192 14.2378 10.7804 14.2523C10.5189 14.3508 10.251 14.4334 9.9791 14.4987C9.83686 14.5331 9.69342 14.5628 9.54957 14.5876C9.48411 14.5988 9.41824 14.6088 9.35238 14.6189C9.31157 14.6241 9.27036 14.6289 9.22955 14.6329C8.76163 14.6822 8.29048 14.671 7.82094 14.671H2.21482V9.96476C2.21482 9.28483 2.1825 8.59369 2.23462 7.91496C2.2419 7.82 2.25119 7.72505 2.2625 7.63049C2.26412 7.61847 2.26534 7.60605 2.26695 7.59403C2.26695 7.59403 2.26695 7.59403 2.26695 7.59363C2.27544 7.53754 2.28392 7.48184 2.29362 7.42575C2.32715 7.23223 2.36878 7.03991 2.41929 6.85C2.46899 6.66209 2.52717 6.47658 2.59344 6.29388C2.62455 6.20733 2.65769 6.12159 2.69285 6.03665C2.69042 6.04226 2.68799 6.04747 2.68476 6.05388C2.69243 6.03745 2.69931 6.02022 2.70658 6.0034C2.7288 5.95291 2.75144 5.90323 2.77447 5.85355C2.9365 5.50737 3.12844 5.17522 3.34744 4.8615C3.39876 4.78778 3.45169 4.71486 3.50624 4.64354C3.50261 4.64795 3.50018 4.65075 3.49574 4.65596C3.51028 4.63873 3.52402 4.6203 3.53817 4.60267C3.56928 4.56381 3.6008 4.52535 3.63272 4.48688C3.75758 4.33784 3.88931 4.194 4.0267 4.05577C4.16085 3.92115 4.30106 3.79173 4.44612 3.66873C4.51279 3.61223 4.58068 3.55774 4.64937 3.50365C4.64331 3.50766 4.63887 3.51127 4.63159 3.51648C4.64169 3.50926 4.65139 3.50165 4.66109 3.49444C4.66351 3.49244 4.66553 3.49083 4.66795 3.48883C4.67442 3.48362 4.6825 3.47801 4.68897 3.4736C4.6918 3.4716 4.69422 3.4696 4.69705 3.46759C4.74069 3.43514 4.78514 3.40309 4.82958 3.37184C5.14315 3.15107 5.4757 2.95675 5.8224 2.79208C5.902 2.75401 5.98281 2.71835 6.06403 2.68309C6.07858 2.67709 6.09353 2.67107 6.10808 2.66547C6.1598 2.64503 6.21152 2.625 6.26364 2.60577C6.44709 2.53805 6.63297 2.47836 6.82167 2.42667C7.01239 2.37458 7.20514 2.33051 7.3995 2.29485C7.49284 2.27762 7.58779 2.26761 7.68114 2.24958C7.51385 2.28163 7.67548 2.25078 7.71871 2.24557C7.77609 2.23916 7.83347 2.23315 7.89085 2.22834C8.0941 2.21031 8.29816 2.2019 8.50222 2.2015C8.79113 2.2023 9.07882 2.22153 9.36572 2.25599C9.37057 2.25679 9.37542 2.25719 9.38027 2.25799C9.4134 2.2628 9.44613 2.26801 9.47886 2.27322C9.55361 2.28524 9.62837 2.29886 9.70272 2.31368C9.84132 2.34093 9.9787 2.37258 10.1153 2.40864C10.3896 2.48076 10.6592 2.57011 10.9222 2.67628C10.9287 2.67909 10.9355 2.68149 10.9424 2.6843C10.9638 2.69351 10.9852 2.70273 11.0067 2.71194C11.0741 2.74159 11.1408 2.77244 11.2071 2.8041C11.3311 2.86379 11.4532 2.9271 11.5732 2.99401C11.816 3.12943 12.0504 3.27968 12.2746 3.44396C12.2985 3.46158 12.3223 3.47921 12.3458 3.49684C12.3498 3.50005 12.3538 3.50325 12.3579 3.50606C12.4116 3.54813 12.4642 3.591 12.5167 3.63467C12.6246 3.72482 12.7296 3.81818 12.8319 3.91474C13.0295 4.10144 13.2157 4.29977 13.3895 4.50892C13.4125 4.53697 13.4355 4.56501 13.4582 4.59306C13.4622 4.59827 13.4731 4.61189 13.4832 4.62471C13.4945 4.63914 13.5079 4.65676 13.5135 4.66398C13.5354 4.69282 13.5568 4.72207 13.5782 4.75132C13.661 4.86511 13.7402 4.9813 13.8158 5.0999C13.9625 5.33068 14.0954 5.57028 14.2126 5.81669C14.2421 5.87879 14.2708 5.94089 14.2982 6.0038C14.2991 6.0054 14.2999 6.007 14.3003 6.009C14.3144 6.04426 14.329 6.07872 14.3431 6.11398C14.394 6.24259 14.4409 6.37281 14.4833 6.50422C14.5698 6.76986 14.6389 7.04111 14.691 7.31557C14.7043 7.38488 14.7161 7.4546 14.7274 7.52431C14.7326 7.55717 14.7367 7.59002 14.7419 7.62248C14.7144 7.4562 14.7399 7.60845 14.7443 7.64571C14.7613 7.78795 14.7734 7.93099 14.7811 8.07402C14.7969 8.36811 14.7936 8.6634 14.771 8.95709C14.7658 9.0236 14.7597 9.09011 14.7524 9.15662C14.7488 9.18987 14.7452 9.22273 14.7411 9.25598C14.7403 9.26359 14.7391 9.27121 14.7383 9.27922C14.7165 9.41865 14.693 9.55768 14.6639 9.69591C14.6053 9.97317 14.5286 10.2464 14.4352 10.5137C14.4138 10.5746 14.3916 10.6351 14.3686 10.6952C14.3568 10.7252 14.3451 10.7553 14.3334 10.7849C14.3273 10.7997 14.2978 10.8703 14.2946 10.8787C14.2918 10.8855 14.289 10.8915 14.2877 10.8943C14.2728 10.928 14.2578 10.9612 14.2425 10.9945C14.2138 11.0566 14.1839 11.1183 14.1532 11.1796C14.0287 11.4276 13.8889 11.668 13.7346 11.8988C13.659 12.0117 13.5798 12.1227 13.4978 12.2309C13.4949 12.2349 13.4917 12.2389 13.4885 12.2429C13.4699 12.2662 13.4517 12.289 13.4331 12.3122C13.3903 12.3647 13.3466 12.4168 13.3022 12.4685C13.1216 12.6772 12.9276 12.8752 12.7228 13.0603C12.6217 13.1516 12.5183 13.2398 12.412 13.3247C12.3902 13.3424 12.368 13.3596 12.3458 13.3772C12.3405 13.3812 12.3353 13.3852 12.3304 13.3888C12.2722 13.4325 12.2132 13.475 12.1534 13.5166C11.9292 13.6733 11.6952 13.8163 11.4532 13.9449L11.4528 13.9445Z" />
    </mask>
    <path
        d="M14.7023 12.2397C15.3509 11.2064 15.7174 10.0124 15.7824 8.79883C15.8483 7.56799 15.5812 6.33394 15.0353 5.22891C14.5084 4.16194 13.703 3.24963 12.7357 2.55408C11.7453 1.8417 10.5808 1.4162 9.37137 1.26274C9.08326 1.22628 8.79275 1.20865 8.50222 1.20825C6.78046 1.21186 5.12052 1.82247 3.80081 2.91468C2.54172 3.9568 1.65155 5.45248 1.34768 7.05113C1.1905 7.8797 1.21232 8.70948 1.21232 9.54686V12.8696C1.21232 13.6236 1.20464 14.3781 1.21232 15.1317C1.21232 15.1437 1.21232 15.1558 1.21232 15.1678C1.21232 15.4362 1.44183 15.6642 1.71297 15.6642H7.4993C7.88236 15.6642 8.26583 15.6706 8.64889 15.6626C9.87889 15.6366 11.0976 15.302 12.1615 14.6886C13.1931 14.094 14.0716 13.2434 14.7019 12.2393L14.7023 12.2397ZM11.4528 13.9445C11.3311 14.0091 11.2079 14.07 11.0826 14.1273C11.0491 14.1425 11.0156 14.1577 10.9816 14.1721C10.9768 14.1741 10.9667 14.1785 10.9553 14.1833C10.9372 14.1906 10.9073 14.203 10.8967 14.2074C10.858 14.2226 10.8192 14.2378 10.7804 14.2523C10.5189 14.3508 10.251 14.4334 9.9791 14.4987C9.83686 14.5331 9.69342 14.5628 9.54957 14.5876C9.48411 14.5988 9.41824 14.6088 9.35238 14.6189C9.31157 14.6241 9.27036 14.6289 9.22955 14.6329C8.76163 14.6822 8.29048 14.671 7.82094 14.671H2.21482V9.96476C2.21482 9.28483 2.1825 8.59369 2.23462 7.91496C2.2419 7.82 2.25119 7.72505 2.2625 7.63049C2.26412 7.61847 2.26534 7.60605 2.26695 7.59403C2.26695 7.59403 2.26695 7.59403 2.26695 7.59363C2.27544 7.53754 2.28392 7.48184 2.29362 7.42575C2.32715 7.23223 2.36878 7.03991 2.41929 6.85C2.46899 6.66209 2.52717 6.47658 2.59344 6.29388C2.62455 6.20733 2.65769 6.12159 2.69285 6.03665C2.69042 6.04226 2.68799 6.04747 2.68476 6.05388C2.69243 6.03745 2.69931 6.02022 2.70658 6.0034C2.7288 5.95291 2.75144 5.90323 2.77447 5.85355C2.9365 5.50737 3.12844 5.17522 3.34744 4.8615C3.39876 4.78778 3.45169 4.71486 3.50624 4.64354C3.50261 4.64795 3.50018 4.65075 3.49574 4.65596C3.51028 4.63873 3.52402 4.6203 3.53817 4.60267C3.56928 4.56381 3.6008 4.52535 3.63272 4.48688C3.75758 4.33784 3.88931 4.194 4.0267 4.05577C4.16085 3.92115 4.30106 3.79173 4.44612 3.66873C4.51279 3.61223 4.58068 3.55774 4.64937 3.50365C4.64331 3.50766 4.63887 3.51127 4.63159 3.51648C4.64169 3.50926 4.65139 3.50165 4.66109 3.49444C4.66351 3.49244 4.66553 3.49083 4.66795 3.48883C4.67442 3.48362 4.6825 3.47801 4.68897 3.4736C4.6918 3.4716 4.69422 3.4696 4.69705 3.46759C4.74069 3.43514 4.78514 3.40309 4.82958 3.37184C5.14315 3.15107 5.4757 2.95675 5.8224 2.79208C5.902 2.75401 5.98281 2.71835 6.06403 2.68309C6.07858 2.67709 6.09353 2.67107 6.10808 2.66547C6.1598 2.64503 6.21152 2.625 6.26364 2.60577C6.44709 2.53805 6.63297 2.47836 6.82167 2.42667C7.01239 2.37458 7.20514 2.33051 7.3995 2.29485C7.49284 2.27762 7.58779 2.26761 7.68114 2.24958C7.51385 2.28163 7.67548 2.25078 7.71871 2.24557C7.77609 2.23916 7.83347 2.23315 7.89085 2.22834C8.0941 2.21031 8.29816 2.2019 8.50222 2.2015C8.79113 2.2023 9.07882 2.22153 9.36572 2.25599C9.37057 2.25679 9.37542 2.25719 9.38027 2.25799C9.4134 2.2628 9.44613 2.26801 9.47886 2.27322C9.55361 2.28524 9.62837 2.29886 9.70272 2.31368C9.84132 2.34093 9.9787 2.37258 10.1153 2.40864C10.3896 2.48076 10.6592 2.57011 10.9222 2.67628C10.9287 2.67909 10.9355 2.68149 10.9424 2.6843C10.9638 2.69351 10.9852 2.70273 11.0067 2.71194C11.0741 2.74159 11.1408 2.77244 11.2071 2.8041C11.3311 2.86379 11.4532 2.9271 11.5732 2.99401C11.816 3.12943 12.0504 3.27968 12.2746 3.44396C12.2985 3.46158 12.3223 3.47921 12.3458 3.49684C12.3498 3.50005 12.3538 3.50325 12.3579 3.50606C12.4116 3.54813 12.4642 3.591 12.5167 3.63467C12.6246 3.72482 12.7296 3.81818 12.8319 3.91474C13.0295 4.10144 13.2157 4.29977 13.3895 4.50892C13.4125 4.53697 13.4355 4.56501 13.4582 4.59306C13.4622 4.59827 13.4731 4.61189 13.4832 4.62471C13.4945 4.63914 13.5079 4.65676 13.5135 4.66398C13.5354 4.69282 13.5568 4.72207 13.5782 4.75132C13.661 4.86511 13.7402 4.9813 13.8158 5.0999C13.9625 5.33068 14.0954 5.57028 14.2126 5.81669C14.2421 5.87879 14.2708 5.94089 14.2982 6.0038C14.2991 6.0054 14.2999 6.007 14.3003 6.009C14.3144 6.04426 14.329 6.07872 14.3431 6.11398C14.394 6.24259 14.4409 6.37281 14.4833 6.50422C14.5698 6.76986 14.6389 7.04111 14.691 7.31557C14.7043 7.38488 14.7161 7.4546 14.7274 7.52431C14.7326 7.55717 14.7367 7.59002 14.7419 7.62248C14.7144 7.4562 14.7399 7.60845 14.7443 7.64571C14.7613 7.78795 14.7734 7.93099 14.7811 8.07402C14.7969 8.36811 14.7936 8.6634 14.771 8.95709C14.7658 9.0236 14.7597 9.09011 14.7524 9.15662C14.7488 9.18987 14.7452 9.22273 14.7411 9.25598C14.7403 9.26359 14.7391 9.27121 14.7383 9.27922C14.7165 9.41865 14.693 9.55768 14.6639 9.69591C14.6053 9.97317 14.5286 10.2464 14.4352 10.5137C14.4138 10.5746 14.3916 10.6351 14.3686 10.6952C14.3568 10.7252 14.3451 10.7553 14.3334 10.7849C14.3273 10.7997 14.2978 10.8703 14.2946 10.8787C14.2918 10.8855 14.289 10.8915 14.2877 10.8943C14.2728 10.928 14.2578 10.9612 14.2425 10.9945C14.2138 11.0566 14.1839 11.1183 14.1532 11.1796C14.0287 11.4276 13.8889 11.668 13.7346 11.8988C13.659 12.0117 13.5798 12.1227 13.4978 12.2309C13.4949 12.2349 13.4917 12.2389 13.4885 12.2429C13.4699 12.2662 13.4517 12.289 13.4331 12.3122C13.3903 12.3647 13.3466 12.4168 13.3022 12.4685C13.1216 12.6772 12.9276 12.8752 12.7228 13.0603C12.6217 13.1516 12.5183 13.2398 12.412 13.3247C12.3902 13.3424 12.368 13.3596 12.3458 13.3772C12.3405 13.3812 12.3353 13.3852 12.3304 13.3888C12.2722 13.4325 12.2132 13.475 12.1534 13.5166C11.9292 13.6733 11.6952 13.8163 11.4532 13.9449L11.4528 13.9445Z"
        fill="#AFB9CA" />
    <path
        d="M14.7023 12.2397C15.3509 11.2064 15.7174 10.0124 15.7824 8.79883C15.8483 7.56799 15.5812 6.33394 15.0353 5.22891C14.5084 4.16194 13.703 3.24963 12.7357 2.55408C11.7453 1.8417 10.5808 1.4162 9.37137 1.26274C9.08326 1.22628 8.79275 1.20865 8.50222 1.20825C6.78046 1.21186 5.12052 1.82247 3.80081 2.91468C2.54172 3.9568 1.65155 5.45248 1.34768 7.05113C1.1905 7.8797 1.21232 8.70948 1.21232 9.54686V12.8696C1.21232 13.6236 1.20464 14.3781 1.21232 15.1317C1.21232 15.1437 1.21232 15.1558 1.21232 15.1678C1.21232 15.4362 1.44183 15.6642 1.71297 15.6642H7.4993C7.88236 15.6642 8.26583 15.6706 8.64889 15.6626C9.87889 15.6366 11.0976 15.302 12.1615 14.6886C13.1931 14.094 14.0716 13.2434 14.7019 12.2393L14.7023 12.2397ZM11.4528 13.9445C11.3311 14.0091 11.2079 14.07 11.0826 14.1273C11.0491 14.1425 11.0156 14.1577 10.9816 14.1721C10.9768 14.1741 10.9667 14.1785 10.9553 14.1833C10.9372 14.1906 10.9073 14.203 10.8967 14.2074C10.858 14.2226 10.8192 14.2378 10.7804 14.2523C10.5189 14.3508 10.251 14.4334 9.9791 14.4987C9.83686 14.5331 9.69342 14.5628 9.54957 14.5876C9.48411 14.5988 9.41824 14.6088 9.35238 14.6189C9.31157 14.6241 9.27036 14.6289 9.22955 14.6329C8.76163 14.6822 8.29048 14.671 7.82094 14.671H2.21482V9.96476C2.21482 9.28483 2.1825 8.59369 2.23462 7.91496C2.2419 7.82 2.25119 7.72505 2.2625 7.63049C2.26412 7.61847 2.26534 7.60605 2.26695 7.59403C2.26695 7.59403 2.26695 7.59403 2.26695 7.59363C2.27544 7.53754 2.28392 7.48184 2.29362 7.42575C2.32715 7.23223 2.36878 7.03991 2.41929 6.85C2.46899 6.66209 2.52717 6.47658 2.59344 6.29388C2.62455 6.20733 2.65769 6.12159 2.69285 6.03665C2.69042 6.04226 2.68799 6.04747 2.68476 6.05388C2.69243 6.03745 2.69931 6.02022 2.70658 6.0034C2.7288 5.95291 2.75144 5.90323 2.77447 5.85355C2.9365 5.50737 3.12844 5.17522 3.34744 4.8615C3.39876 4.78778 3.45169 4.71486 3.50624 4.64354C3.50261 4.64795 3.50018 4.65075 3.49574 4.65596C3.51028 4.63873 3.52402 4.6203 3.53817 4.60267C3.56928 4.56381 3.6008 4.52535 3.63272 4.48688C3.75758 4.33784 3.88931 4.194 4.0267 4.05577C4.16085 3.92115 4.30106 3.79173 4.44612 3.66873C4.51279 3.61223 4.58068 3.55774 4.64937 3.50365C4.64331 3.50766 4.63887 3.51127 4.63159 3.51648C4.64169 3.50926 4.65139 3.50165 4.66109 3.49444C4.66351 3.49244 4.66553 3.49083 4.66795 3.48883C4.67442 3.48362 4.6825 3.47801 4.68897 3.4736C4.6918 3.4716 4.69422 3.4696 4.69705 3.46759C4.74069 3.43514 4.78514 3.40309 4.82958 3.37184C5.14315 3.15107 5.4757 2.95675 5.8224 2.79208C5.902 2.75401 5.98281 2.71835 6.06403 2.68309C6.07858 2.67709 6.09353 2.67107 6.10808 2.66547C6.1598 2.64503 6.21152 2.625 6.26364 2.60577C6.44709 2.53805 6.63297 2.47836 6.82167 2.42667C7.01239 2.37458 7.20514 2.33051 7.3995 2.29485C7.49284 2.27762 7.58779 2.26761 7.68114 2.24958C7.51385 2.28163 7.67548 2.25078 7.71871 2.24557C7.77609 2.23916 7.83347 2.23315 7.89085 2.22834C8.0941 2.21031 8.29816 2.2019 8.50222 2.2015C8.79113 2.2023 9.07882 2.22153 9.36572 2.25599C9.37057 2.25679 9.37542 2.25719 9.38027 2.25799C9.4134 2.2628 9.44613 2.26801 9.47886 2.27322C9.55361 2.28524 9.62837 2.29886 9.70272 2.31368C9.84132 2.34093 9.9787 2.37258 10.1153 2.40864C10.3896 2.48076 10.6592 2.57011 10.9222 2.67628C10.9287 2.67909 10.9355 2.68149 10.9424 2.6843C10.9638 2.69351 10.9852 2.70273 11.0067 2.71194C11.0741 2.74159 11.1408 2.77244 11.2071 2.8041C11.3311 2.86379 11.4532 2.9271 11.5732 2.99401C11.816 3.12943 12.0504 3.27968 12.2746 3.44396C12.2985 3.46158 12.3223 3.47921 12.3458 3.49684C12.3498 3.50005 12.3538 3.50325 12.3579 3.50606C12.4116 3.54813 12.4642 3.591 12.5167 3.63467C12.6246 3.72482 12.7296 3.81818 12.8319 3.91474C13.0295 4.10144 13.2157 4.29977 13.3895 4.50892C13.4125 4.53697 13.4355 4.56501 13.4582 4.59306C13.4622 4.59827 13.4731 4.61189 13.4832 4.62471C13.4945 4.63914 13.5079 4.65676 13.5135 4.66398C13.5354 4.69282 13.5568 4.72207 13.5782 4.75132C13.661 4.86511 13.7402 4.9813 13.8158 5.0999C13.9625 5.33068 14.0954 5.57028 14.2126 5.81669C14.2421 5.87879 14.2708 5.94089 14.2982 6.0038C14.2991 6.0054 14.2999 6.007 14.3003 6.009C14.3144 6.04426 14.329 6.07872 14.3431 6.11398C14.394 6.24259 14.4409 6.37281 14.4833 6.50422C14.5698 6.76986 14.6389 7.04111 14.691 7.31557C14.7043 7.38488 14.7161 7.4546 14.7274 7.52431C14.7326 7.55717 14.7367 7.59002 14.7419 7.62248C14.7144 7.4562 14.7399 7.60845 14.7443 7.64571C14.7613 7.78795 14.7734 7.93099 14.7811 8.07402C14.7969 8.36811 14.7936 8.6634 14.771 8.95709C14.7658 9.0236 14.7597 9.09011 14.7524 9.15662C14.7488 9.18987 14.7452 9.22273 14.7411 9.25598C14.7403 9.26359 14.7391 9.27121 14.7383 9.27922C14.7165 9.41865 14.693 9.55768 14.6639 9.69591C14.6053 9.97317 14.5286 10.2464 14.4352 10.5137C14.4138 10.5746 14.3916 10.6351 14.3686 10.6952C14.3568 10.7252 14.3451 10.7553 14.3334 10.7849C14.3273 10.7997 14.2978 10.8703 14.2946 10.8787C14.2918 10.8855 14.289 10.8915 14.2877 10.8943C14.2728 10.928 14.2578 10.9612 14.2425 10.9945C14.2138 11.0566 14.1839 11.1183 14.1532 11.1796C14.0287 11.4276 13.8889 11.668 13.7346 11.8988C13.659 12.0117 13.5798 12.1227 13.4978 12.2309C13.4949 12.2349 13.4917 12.2389 13.4885 12.2429C13.4699 12.2662 13.4517 12.289 13.4331 12.3122C13.3903 12.3647 13.3466 12.4168 13.3022 12.4685C13.1216 12.6772 12.9276 12.8752 12.7228 13.0603C12.6217 13.1516 12.5183 13.2398 12.412 13.3247C12.3902 13.3424 12.368 13.3596 12.3458 13.3772C12.3405 13.3812 12.3353 13.3852 12.3304 13.3888C12.2722 13.4325 12.2132 13.475 12.1534 13.5166C11.9292 13.6733 11.6952 13.8163 11.4532 13.9449L11.4528 13.9445Z"
        stroke="#AFB9CA" stroke-width="0.74701" stroke-linejoin="round" mask="url(#path-1-outside-1_4032_25)" />
    <path
        d="M7.69897 8.62357C7.59353 8.18056 7.87023 7.73669 8.317 7.63213C8.76377 7.52757 9.21143 7.80193 9.31688 8.24493C9.42233 8.68793 9.14563 9.13182 8.69886 9.23638C8.25209 9.34094 7.80442 9.06657 7.69897 8.62357Z"
        fill="#AFB9CA" />
    <path
        d="M11.4227 9.19733C10.9986 9.02315 10.7972 8.54104 10.9729 8.12051C11.1486 7.69998 11.6348 7.50029 12.0589 7.67448C12.483 7.84866 12.6844 8.33077 12.5087 8.7513C12.333 9.17182 11.8468 9.37152 11.4227 9.19733Z"
        fill="#AFB9CA" />
    <path
        d="M5.25341 9.26027C4.79436 9.26027 4.42224 8.89128 4.42224 8.4361C4.42224 7.98093 4.79436 7.61194 5.25341 7.61194C5.71246 7.61194 6.08459 7.98093 6.08459 8.4361C6.08459 8.89128 5.71246 9.26027 5.25341 9.26027Z"
        fill="#AFB9CA" />
</svg>