<svg width="19" height="16" viewBox="0 0 19 16" fill="none" xmlns="http://www.w3.org/2000/svg">
    <path
        d="M16.1889 2.28853C15.8072 1.90903 15.3541 1.60799 14.8553 1.4026C14.3565 1.19721 13.8219 1.09149 13.2821 1.09149C12.7422 1.09149 12.2076 1.19721 11.7088 1.4026C11.21 1.60799 10.7569 1.90903 10.3752 2.28853L9.58313 3.07574L8.79104 2.28853C8.0201 1.52233 6.97448 1.09189 5.88421 1.09189C4.79394 1.09189 3.74832 1.52233 2.97738 2.28853C2.20644 3.05472 1.77333 4.0939 1.77333 5.17746C1.77333 6.26102 2.20644 7.30021 2.97738 8.0664L3.76947 8.85362L9.58313 14.6315L15.3968 8.85362L16.1889 8.0664C16.5707 7.68708 16.8736 7.23671 17.0803 6.74102C17.287 6.24533 17.3933 5.71402 17.3933 5.17746C17.3933 4.6409 17.287 4.1096 17.0803 3.61391C16.8736 3.11821 16.5707 2.66784 16.1889 2.28853Z"
        stroke="#AFB9CA" stroke-width="2" stroke-linecap="round" stroke-linejoin="round" />
</svg>