<svg width="23" height="20" viewBox="0 0 23 20" fill="none" xmlns="http://www.w3.org/2000/svg">
    <path
        d="M20.2311 2.62359C19.7425 2.13787 19.1622 1.75256 18.5236 1.48968C17.885 1.2268 17.2005 1.09149 16.5092 1.09149C15.8179 1.09149 15.1334 1.2268 14.4948 1.48968C13.8562 1.75256 13.276 2.13787 12.7873 2.62359L11.7731 3.63116L10.7589 2.62359C9.77175 1.64293 8.43293 1.092 7.03694 1.092C5.64094 1.092 4.30212 1.64293 3.31501 2.62359C2.32789 3.60425 1.77333 4.93431 1.77333 6.32117C1.77333 7.70804 2.32789 9.0381 3.31501 10.0188L4.32921 11.0263L11.7731 18.4215L19.2169 11.0263L20.2311 10.0188C20.7201 9.53327 21.1079 8.95683 21.3725 8.32239C21.6371 7.68794 21.7733 7.00792 21.7733 6.32117C21.7733 5.63442 21.6371 4.9544 21.3725 4.31996C21.1079 3.68551 20.7201 3.10908 20.2311 2.62359Z"
        stroke="#AFB9CA" stroke-width="2" stroke-linecap="round" stroke-linejoin="round" />
</svg>